<svg xmlns="http://www.w3.org/2000/svg" width="100%" height="100%" fill-rule="evenodd"
     xmlns:v="https://vecta.io/nano" fit="" preserveAspectRatio="xMidYMid meet"
     focusable="false">
    <path fill="currentColor"
          d="M4.445 5.665a1.2 1.2 0 0 0 .684.214 1.21 1.21 0 0 0 .87-.373 1.28 1.28 0 0 0 .29-.476h6.635c.109 0 .213-.045.29-.124a.43.43 0 0 0 .12-.3.43.43 0 0 0-.12-.3.4.4 0 0 0-.29-.124H6.29a1.29 1.29 0 0 0-.137-.283 1.24 1.24 0 0 0-.552-.469 1.19 1.19 0 0 0-.711-.072 1.22 1.22 0 0 0-.63.348 1.28 1.28 0 0 0-.29.476h-.891c-.109 0-.213.045-.29.124a.43.43 0 0 0-.12.3.43.43 0 0 0 .12.3.4.4 0 0 0 .29.124h.891l.023.063c.093.233.251.431.453.571zm.274-1.047c.001.024.003.048.008.071a.43.43 0 0 0 .112.217c.057.059.13.1.21.116a.4.4 0 0 0 .237-.024.41.41 0 0 0 .184-.156c.045-.07.069-.152.069-.236a.43.43 0 0 0-.12-.3.4.4 0 0 0-.518-.053.42.42 0 0 0-.151.19c-.019.048-.03.099-.031.151v.011.011zM3.078 8.425h6.635l.023.063c.093.233.251.431.453.571a1.2 1.2 0 0 0 .684.214 1.21 1.21 0 0 0 .87-.373 1.28 1.28 0 0 0 .29-.476h.891c.109 0 .213-.045.29-.124a.43.43 0 0 0 .12-.3.43.43 0 0 0-.12-.3.4.4 0 0 0-.29-.124h-.891a1.32 1.32 0 0 0-.137-.283 1.24 1.24 0 0 0-.552-.469 1.19 1.19 0 0 0-.711-.072 1.22 1.22 0 0 0-.63.348 1.28 1.28 0 0 0-.29.476H3.078c-.109 0-.213.045-.29.124a.43.43 0 0 0-.12.3.43.43 0 0 0 .12.3.4.4 0 0 0 .29.124zm8.205-.424c-.003-.121-.046-.224-.12-.3s-.181-.124-.29-.124a.4.4 0 0 0-.228.071.43.43 0 0 0-.151.19c-.031.077-.039.163-.023.245a.43.43 0 0 0 .112.217c.057.059.13.1.21.116a.4.4 0 0 0 .237-.024.41.41 0 0 0 .184-.156.42.42 0 0 0 .069-.222zM5.61 11.819H3.078c-.109 0-.213-.045-.29-.124a.43.43 0 0 1-.12-.3.43.43 0 0 1 .12-.3.4.4 0 0 1 .29-.124H5.61a1.28 1.28 0 0 1 .29-.476 1.22 1.22 0 0 1 .63-.348c.239-.049.486-.024.711.072a1.24 1.24 0 0 1 .552.469 1.29 1.29 0 0 1 .137.283h4.994c.109 0 .213.045.29.124a.43.43 0 0 1 .12.3.43.43 0 0 1-.12.3.4.4 0 0 1-.29.124H7.931a1.28 1.28 0 0 1-.29.476 1.21 1.21 0 0 1-.87.373 1.21 1.21 0 0 1-.684-.214c-.203-.139-.36-.339-.453-.571l-.023-.063zm.75-.42a.44.44 0 0 0 .008.078.43.43 0 0 0 .112.217c.057.059.13.1.21.116a.4.4 0 0 0 .237-.024c.075-.032.139-.087.184-.156s.069-.152.069-.236a.43.43 0 0 0-.12-.3.4.4 0 0 0-.518-.052.42.42 0 0 0-.151.19c-.02.05-.031.104-.031.158v.005.005z"></path>
</svg>
