<svg width="100%" height="100%" viewBox="0 0 16 16" fill="none"
     xmlns="http://www.w3.org/2000/svg" fit="" preserveAspectRatio="xMidYMid meet"
     focusable="false">
    <path
            d="M12.0746 1.17969L12.7146 0.539689C12.7763 0.477887 12.8496 0.428855 12.9302 0.395401C13.0109 0.361947 13.0973 0.344727 13.1846 0.344727C13.2719 0.344727 13.3584 0.361947 13.4391 0.395401C13.5197 0.428855 13.593 0.477887 13.6546 0.539689L14.128 1.01302C14.388 1.27302 14.388 1.69302 14.128 1.95302L13.488 2.59302L12.0746 1.17969ZM11.408 1.84636L12.8213 3.25969L8.8413 7.23969C8.77935 7.3019 8.69574 7.33773 8.60797 7.33969H7.66797C7.4813 7.33969 7.33464 7.19302 7.33464 7.00636V6.06636C7.33464 5.97969 7.36797 5.89302 7.43463 5.83302L11.408 1.84636ZM10.088 1.75969L6.52797 5.31969C6.40797 5.44636 6.33464 5.61302 6.33464 5.79302V7.67969C6.33464 8.04636 6.63464 8.34636 7.0013 8.34636H8.88797C9.06797 8.34636 9.23463 8.27302 9.3613 8.15302L12.9146 4.59969C13.1813 5.25302 13.3346 5.99302 13.3346 6.80636C13.3346 8.92636 11.7013 11.4197 8.4413 14.293C8.18797 14.513 7.80797 14.513 7.55464 14.293C4.3013 11.4197 2.66797 8.92636 2.66797 6.80636C2.66797 3.48636 5.2013 1.33969 8.0013 1.33969C8.72797 1.33969 9.4413 1.48636 10.088 1.75969Z"
            fill="currentColor"></path>
</svg>
