<svg xmlns="http://www.w3.org/2000/svg" xmlns:xlink="http://www.w3.org/1999/xlink" width="100%" height="100%" viewBox="0 0 18 18" fit="" preserveAspectRatio="xMidYMid meet" focusable="false"><defs><path id="iocga" d="M369.987 2642.463a4.482 4.482 0 0 1-4.492-4.485 4.482 4.482 0 0 1 4.492-4.484 4.482 4.482 0 0 1 4.493 4.484 4.482 4.482 0 0 1-4.493 4.485zm5.978 0h-.787l-.28-.269a6.476 6.476 0 0 0 1.476-5.322c-.468-2.77-2.782-4.983-5.574-5.322a6.485 6.485 0 0 0-7.25 7.246c.34 2.79 2.553 5.102 5.325 5.57a6.485 6.485 0 0 0 5.325-1.474l.27.279v.787l4.238 4.236a1.054 1.054 0 0 0 1.485 0 1.052 1.052 0 0 0 0-1.485z"></path></defs><g><g transform="translate(-363 -2631)"><use xlink:href="#iocga"></use></g></g></svg>
